HIERARCHY
ROOT Hips
{
	OFFSET 62.890800 8.863803 43.568401
	CHANNELS 6 Xposition Yposition Zposition Zrotation Xrotation Yrotation
	JOINT Chest
	{
		OFFSET -0.160400 1.630001 7.806301
		CHANNELS 6 Xposition Yposition Zposition Zrotation Xrotation Yrotation
		JOINT Chest2
		{
			OFFSET 0.000000 0.000000 3.197998
			CHANNELS 6 Xposition Yposition Zposition Zrotation Xrotation Yrotation
			JOINT Neck
			{
				OFFSET 0.000000 0.000001 7.440701
				CHANNELS 6 Xposition Yposition Zposition Zrotation Xrotation Yrotation
				JOINT Head
				{
					OFFSET 0.000000 0.000000 2.173901
					CHANNELS 6 Xposition Yposition Zposition Zrotation Xrotation Yrotation
					End Site
					{
						OFFSET 0.000000 0.000001 10.420303
					}
				}
			}
			JOINT LeftCollar
			{
				OFFSET 2.426399 -1.880099 4.759399
				CHANNELS 6 Xposition Yposition Zposition Zrotation Xrotation Yrotation
				JOINT LeftShoulder
				{
					OFFSET 4.420197 0.000000 0.000000
					CHANNELS 6 Xposition Yposition Zposition Zrotation Xrotation Yrotation
					JOINT LeftElbow
					{
						OFFSET 0.000000 -0.000001 -10.347099
						CHANNELS 6 Xposition Yposition Zposition Zrotation Xrotation Yrotation
						JOINT LeftWrist
						{
							OFFSET 0.000000 -0.000001 -12.496300
							CHANNELS 6 Xposition Yposition Zposition Zrotation Xrotation Yrotation
							End Site
							{
								OFFSET 0.000000 0.000000 -2.173901
							}
						}
					}
				}
			}
			JOINT RightCollar
			{
				OFFSET -2.781502 -1.903799 5.072601
				CHANNELS 6 Xposition Yposition Zposition Zrotation Xrotation Yrotation
				JOINT RightShoulder
				{
					OFFSET -4.012100 0.000000 0.000000
					CHANNELS 6 Xposition Yposition Zposition Zrotation Xrotation Yrotation
					JOINT RightElbow
					{
						OFFSET 0.000000 -0.000001 -10.346600
						CHANNELS 6 Xposition Yposition Zposition Zrotation Xrotation Yrotation
						JOINT RightWrist
						{
							OFFSET 0.000000 -0.000001 -12.562599
							CHANNELS 6 Xposition Yposition Zposition Zrotation Xrotation Yrotation
							End Site
							{
								OFFSET 0.000000 0.000000 -2.173901
							}
						}
					}
				}
			}
		}
	}
	JOINT LeftHip
	{
		OFFSET 2.047997 -0.047200 -2.693199
		CHANNELS 6 Xposition Yposition Zposition Zrotation Xrotation Yrotation
		JOINT LeftKnee
		{
			OFFSET 0.000000 -0.000001 -18.824400
			CHANNELS 6 Xposition Yposition Zposition Zrotation Xrotation Yrotation
			JOINT LeftAnkle
			{
				OFFSET 0.000000 -0.000002 -19.078199
				CHANNELS 6 Xposition Yposition Zposition Zrotation Xrotation Yrotation
				End Site
				{
					OFFSET 0.000000 -9.342100 0.000001
				}
			}
		}
	}
	JOINT RightHip
	{
		OFFSET -2.129898 -0.022300 -2.538300
		CHANNELS 6 Xposition Yposition Zposition Zrotation Xrotation Yrotation
		JOINT RightKnee
		{
			OFFSET 0.000000 -0.000001 -18.644600
			CHANNELS 6 Xposition Yposition Zposition Zrotation Xrotation Yrotation
			JOINT RightAnkle
			{
				OFFSET 0.000000 -0.000002 -18.801399
				CHANNELS 6 Xposition Yposition Zposition Zrotation Xrotation Yrotation
				End Site
				{
					OFFSET 0.000000 -8.914600 0.000001
				}
			}
		}
	}
}
MOTION
Frames: 7
Frame Time: 0.041667
-15.688316 -49.651695 39.171555 -357.642092 -2.514766 -15.515909 -0.160396 1.630004 7.806302 -3.433297 -4.122562 -5.325367 0.000006 0.000007 3.198001 3.105547 -4.318284 0.573983 0.000000 -0.000001 7.440702 -27.121523 -2.519457 10.263607 -0.000008 0.000003 2.173903 -3.317592 -6.919847 -1.980737 2.426402 -1.880102 4.759397 -174.156956 179.842569 -189.842786 4.420199 -0.000005 0.000006 -4.954010 -11.527860 -116.268890 0.000001 0.000002 -10.347095 385.432110 1.194797 -0.693498 -0.000000 0.000002 -12.496306 55.877535 158.400174 199.074907 -2.781506 -1.903803 5.072598 -179.540142 -183.016517 170.652741 -4.012095 0.000002 -0.000006 -9.736370 21.092678 443.812496 0.000003 0.000003 -10.346597 -45.627330 -0.578427 1.040935 0.000007 -0.000004 -12.562603 1163.708943 -176.343859 179.162200 2.047999 -0.047198 -2.693202 -56.366618 23.054429 -6.247709 -0.000002 0.000003 -18.824398 212.020191 180.606307 -174.009806 0.000001 -0.000004 -19.078199 26.557106 14.173468 52.800006 -2.129896 -0.022295 -2.538302 -550.241897 16.451972 -65.013442 0.000003 0.000000 -18.644604 463.398501 204.593358 147.096757 0.000001 -0.000004 -18.801395 -89.867374 -13.985670 -82.788901
-15.587997 -49.694401 39.248051 -357.560103 -2.488669 -15.126139 -0.160399 1.630007 7.806304 0.142234 -4.646674 -4.141004 0.000006 0.000002 3.197999 -0.644660 -4.242185 0.089940 -0.000010 0.000006 7.440699 -26.554107 -2.593046 9.818408 -0.000008 0.000007 2.173908 -3.331222 -7.134761 -1.827264 2.426402 -1.880095 4.759394 -174.297070 179.875805 -190.180088 4.420196 -0.000003 0.000002 -4.342151 -11.468401 -115.342088 0.000000 0.000008 -10.347101 385.557895 1.157828 -0.664995 0.000007 -0.000006 -12.496304 56.760245 158.580382 198.611383 -2.781506 -1.903799 5.072600 -180.020455 -182.794386 171.159732 -4.012098 0.000008 0.000007 -9.854827 20.531332 443.910441 0.000002 -0.000003 -10.346601 -46.319737 -0.694841 0.781161 -0.000001 0.000004 -12.562603 1163.914505 -176.187557 179.638989 2.047996 -0.047204 -2.693199 -57.559828 23.541895 -5.833412 -0.000002 0.000002 -18.824396 211.974374 180.936000 -174.168444 0.000001 -0.000001 -19.078197 27.893881 13.541341 54.759949 -2.129896 -0.022295 -2.538302 -551.720114 17.531644 -64.156103 -0.000000 0.000004 -18.644596 466.830753 204.764290 149.040602 0.000005 -0.000009 -18.801397 -91.285253 -13.510293 -83.271091
-15.491005 -49.736900 39.323055 -357.454781 -2.443511 -14.721875 -0.160401 1.630004 7.806297 -0.012302 -4.933971 -3.729429 0.000006 -0.000002 3.198001 -0.635417 -4.113849 0.071522 -0.000001 0.000004 7.440711 -25.973558 -2.670832 9.378049 -0.000005 -0.000001 2.173908 -3.280173 -7.213794 -1.633962 2.426401 -1.880096 4.759400 -174.451924 179.887922 -190.495356 4.420188 0.000003 -0.000004 -3.727119 -11.369788 -114.434793 0.000000 0.000003 -10.347092 385.778592 1.116397 -0.631484 -0.000008 0.000002 -12.496290 57.553127 158.734812 198.206093 -2.781505 -1.903796 5.072607 -180.499934 -182.584029 171.667939 -4.012094 -0.000002 0.000002 -9.969939 20.011496 444.029013 0.000006 -0.000002 -10.346597 -46.892268 -0.753564 0.656958 0.000004 0.000003 -12.562598 1164.063348 -176.211600 179.985771 2.047994 -0.047197 -2.693200 -58.688407 24.010924 -5.424413 0.000000 0.000000 -18.824400 211.933571 181.278616 -174.371287 0.000000 -0.000003 -19.078196 29.141231 12.944290 56.556572 -2.129896 -0.022295 -2.538308 -553.314608 18.709396 -63.222779 -0.000001 -0.000009 -18.644592 470.292675 204.775997 150.913562 0.000008 -0.000004 -18.801403 -92.592858 -13.032748 -83.716563
-15.396507 -49.779591 39.396652 -357.307905 -2.415036 -14.335085 -0.160402 1.630001 7.806305 -0.210171 -5.216557 -3.298657 0.000013 -0.000002 3.198006 -0.615220 -3.980402 0.053065 -0.000005 0.000007 7.440710 -25.373389 -2.758359 8.908418 -0.000004 0.000010 2.173904 -3.289550 -7.404921 -1.490915 2.426404 -1.880097 4.759404 -174.610139 179.921977 -190.823505 4.420198 0.000001 0.000005 -3.116620 -11.255338 -113.520339 0.000002 -0.000000 -10.347090 386.023960 1.045798 -0.591114 -0.000000 0.000009 -12.496296 58.114227 158.872973 197.879965 -2.781503 -1.903798 5.072614 -181.003715 -182.327829 172.165833 -4.012096 0.000003 -0.000008 -10.065372 19.550686 444.166218 0.000001 -0.000003 -10.346597 -47.298705 -0.796267 0.575550 0.000002 -0.000014 -12.562600 1164.029798 -176.160496 180.249908 2.047997 -0.047202 -2.693197 -59.784537 24.444590 -5.011769 0.000009 -0.000001 -18.824396 211.898956 181.610755 -174.595427 -0.000001 -0.000002 -19.078199 30.354320 12.453922 58.240968 -2.129899 -0.022296 -2.538294 -555.079201 19.938461 -62.241021 -0.000006 -0.000005 -18.644600 473.819129 204.640732 152.759749 0.000001 -0.000001 -18.801401 -93.822265 -12.542681 -84.126784
-15.305519 -49.821701 39.468353 -357.117397 -2.380293 -13.941146 -0.160396 1.629997 7.806304 -0.446461 -5.532603 -2.892811 0.000000 -0.000001 3.198007 -0.571254 -3.847488 0.039498 -0.000007 0.000008 7.440698 -24.782599 -2.845985 8.455514 -0.000004 -0.000003 2.173912 -3.284836 -7.604622 -1.361522 2.426400 -1.880091 4.759393 -174.828199 179.874275 -191.107996 4.420195 0.000005 -0.000016 -2.472324 -11.153145 -112.652127 -0.000002 0.000003 -10.347092 386.357929 0.989040 -0.552274 -0.000003 0.000010 -12.496300 58.487204 159.114516 197.572716 -2.781503 -1.903797 5.072603 -181.458906 -182.163208 172.620819 -4.012085 0.000004 -0.000000 -10.217769 19.033519 444.346918 -0.000004 -0.000001 -10.346600 -47.583930 -0.827339 0.547505 0.000004 -0.000001 -12.562593 1164.101707 -176.285898 180.714579 2.047996 -0.047201 -2.693201 -60.765215 24.838651 -4.658654 -0.000008 0.000008 -18.824404 211.854969 181.919712 -174.845972 0.000001 0.000003 -19.078207 31.418324 11.999231 59.783013 -2.129893 -0.022300 -2.538302 -556.975480 21.231662 -61.180723 -0.000003 0.000002 -18.644596 477.343889 204.366459 154.505176 0.000004 -0.000003 -18.801401 -94.956883 -12.047059 -84.490342
-15.218117 -49.862892 39.537853 -356.885334 -2.348521 -13.531379 -0.160395 1.630001 7.806302 -0.724201 -5.859125 -2.522050 0.000007 -0.000002 3.198002 -0.502920 -3.718815 0.031045 -0.000000 0.000002 7.440703 -24.205111 -2.941659 8.016876 -0.000005 0.000000 2.173899 -3.249942 -7.802520 -1.254560 2.426409 -1.880102 4.759398 -175.062475 179.789225 -191.314391 4.420196 0.000009 -0.000006 -1.850395 -11.025762 -111.858828 -0.000007 0.000006 -10.347092 386.782766 0.944182 -0.520451 -0.000002 0.000013 -12.496296 58.746703 159.218922 197.306120 -2.781499 -1.903802 5.072606 -181.890847 -182.037696 173.047269 -4.012091 0.000005 -0.000001 -10.415150 18.494069 444.398226 -0.000001 -0.000000 -10.346597 -47.772737 -0.981474 0.691644 0.000000 -0.000003 -12.562606 1164.200061 -176.106865 180.288266 2.047995 -0.047206 -2.693204 -61.670837 25.215624 -4.350680 0.000005 -0.000001 -18.824396 211.831063 182.208137 -175.114849 -0.000001 -0.000003 -19.078203 32.345922 11.617058 61.131839 -2.129893 -0.022302 -2.538302 -559.042787 22.575406 -60.017589 -0.000001 0.000004 -18.644592 480.666858 203.889807 156.045015 0.000006 -0.000005 -18.801401 -95.800971 -11.567278 -84.759233
-15.134018 -49.903492 39.604954 -356.625241 -2.319581 -13.118073 -0.160400 1.630008 7.806306 -1.030898 -6.184691 -2.163155 0.000006 0.000000 3.198009 -0.410075 -3.599588 0.027252 -0.000007 0.000006 7.440703 -23.635875 -3.042211 7.574093 -0.000006 0.000002 2.173912 -3.187604 -7.996017 -1.160927 2.426401 -1.880097 4.759403 -175.294005 179.699354 -191.492372 4.420189 -0.000001 -0.000004 -1.255328 -10.851155 -111.099099 0.000008 -0.000006 -10.347089 387.245717 0.908738 -0.492764 0.000005 0.000001 -12.496298 58.909774 159.323083 197.078989 -2.781502 -1.903796 5.072610 -182.319838 -181.921747 173.460632 -4.012094 0.000004 -0.000002 -10.626514 17.895075 444.681378 0.000000 0.000003 -10.346597 -47.857110 -0.998043 0.702379 0.000000 0.000005 -12.562600 1164.022258 -176.342575 181.007034 2.047997 -0.047200 -2.693200 -62.487563 25.570451 -4.089574 0.000007 0.000000 -18.824402 211.826911 182.472588 -175.384382 0.000001 -0.000004 -19.078199 33.142171 11.291884 62.332026 -2.129895 -0.022297 -2.538298 -561.298608 23.985003 -58.741792 -0.000010 0.000003 -18.644598 483.743449 203.212020 157.348721 -0.000006 -0.000001 -18.801403 -96.314144 -11.115369 -84.944276
